<?xml version="1.0" encoding="UTF-8"?>
<!DOCTYPE svg PUBLIC "-//W3C//DTD SVG 1.1//EN" "http://www.w3.org/Graphics/SVG/1.1/DTD/svg11.dtd">
<!-- Creator: CorelDRAW -->
<svg xmlns="http://www.w3.org/2000/svg" xml:space="preserve" width="147.817mm" height="33.8368mm" style="shape-rendering:geometricPrecision; text-rendering:geometricPrecision; image-rendering:optimizeQuality; fill-rule:evenodd; clip-rule:evenodd"
viewBox="0 0 122.943 28.1429"
 xmlns:xlink="http://www.w3.org/1999/xlink">
 <defs>
  <style type="text/css">
   <![CDATA[
    .fil0 {fill:#3E4040}
    .fil1 {fill:#3E4040;fill-rule:nonzero}
    .fil2 {fill:#FEFEFE;fill-rule:nonzero}
   ]]>
  </style>
 </defs>
 <g id="Layer_x0020_1">
  <metadata id="CorelCorpID_0Corel-Layer"/>
  <polygon class="fil0" points="-0,0.235212 27.815,0.235212 27.815,28.0502 -0,28.0502 "/>
  <path class="fil1" d="M44.2922 16.018l-9.70706 0 0 -15.7735 2.99379 0 0 13.1978 6.71327 0 0 2.57568zm7.47854 0.244527c-2.09445,0 -3.72746,-0.788808 -4.89495,-2.35869 -1.16758,-1.57379 -1.74737,-3.51445 -1.74737,-5.82582 0,-2.29564 0.619302,-4.21651 1.85782,-5.75878 1.24243,-1.54618 2.87935,-2.31926 4.91067,-2.31926 2.05112,0 3.66832,0.773088 4.85952,2.31926 1.1912,1.54227 1.78679,3.47495 1.78679,5.79429 0,2.43363 -0.619302,4.4019 -1.85391,5.90075 -1.23852,1.49885 -2.87544,2.24823 -4.91857,2.24823zm0.023621 -2.29165c1.0256,0 1.88935,-0.422017 2.59939,-1.27004 0.70996,-0.84811 1.06494,-2.38239 1.06494,-4.611 0,-1.81042 -0.295844,-3.23042 -0.879549,-4.25594 -0.583788,-1.02951 -1.49494,-1.54227 -2.72556,-1.54227 -2.43762,0 -3.65252,1.96038 -3.65252,5.88104 0,1.90116 0.307655,3.34478 0.930866,4.32696 0.619302,0.9821 1.50675,1.47124 2.66243,1.47124zm21.3666 -6.01911l0 8.06623 -1.26223 0 -0.863829 -2.12597c-0.918973,1.5777 -2.33898,2.3705 -4.26384,2.3705 -2.14968,0 -3.75499,-0.820413 -4.81602,-2.45334 -1.05712,-1.63301 -1.58959,-3.52235 -1.58959,-5.67203 0,-2.27194 0.591606,-4.1968 1.77498,-5.77059 1.18329,-1.5777 2.83593,-2.36659 4.96199,-2.36659 1.58959,0 2.89515,0.461441 3.92067,1.38449 1.02161,0.918973 1.66844,2.06284 1.94066,3.43552l-2.47313 0.43782c-0.461524,-1.92486 -1.56988,-2.88725 -3.31725,-2.88725 -1.11626,0 -2.02733,0.453539 -2.73338,1.36469 -0.706051,0.907245 -1.05712,2.30745 -1.05712,4.19289 0,3.98379 1.25033,5.97569 3.74318,5.97569 0.970373,0 1.77498,-0.335268 2.41001,-1.0058 0.635105,-0.670536 0.95457,-1.55807 0.95457,-2.65852l-3.25803 0 0 -2.28774 5.92837 0zm6.06643 8.06623l-2.84392 0 0 -15.7735 2.84392 0 0 15.7735zm15.7656 0l-3.0056 0 -2.44951 -6.48454 -3.99951 0 0 6.48454 -2.84392 0 0 -15.7735 6.84343 0c1.90124,0 3.30145,0.429918 4.19289,1.28984 0.895352,0.855928 1.34107,1.96819 1.34107,3.33297 0,2.02741 -0.946669,3.41972 -2.84392,4.181l2.76507 6.96969zm-9.45463 -8.76039l3.53807 0c1.02161,0 1.78679,-0.213005 2.28774,-0.646915 0.500865,-0.429918 0.749384,-1.02552 0.749384,-1.77889 0,-0.694241 -0.244527,-1.25432 -0.737573,-1.68033 -0.493046,-0.429918 -1.18329,-0.642923 -2.07083,-0.642923l-3.7668 0 0 4.74906zm23.0784 -7.0131l0 10.1331c0,1.3726 -0.153869,2.42972 -0.465433,3.16729 -0.307655,0.741566 -0.903253,1.37659 -1.78288,1.91305 -0.883541,0.536379 -1.96029,0.80461 -3.23042,0.80461 -1.28585,0 -2.34297,-0.232717 -3.17128,-0.694157 -0.828315,-0.461524 -1.42391,-1.09655 -1.78679,-1.90124 -0.362881,-0.80461 -0.544281,-1.83412 -0.544281,-3.08054l0 -10.3421 2.90305 0 0 10.1331c0,1.3884 0.287943,2.29955 0.871731,2.73346 0.579795,0.43782 1.25823,0.654734 2.02733,0.654734 0.887533,0 1.59358,-0.232717 2.12605,-0.702059 0.53247,-0.465433 0.796709,-1.36087 0.796709,-2.68614l0 -10.1331 2.25622 0zm1.5935 11.9711l2.76108 -0.587697c0.331276,1.56198 1.6014,2.34297 3.81412,2.34297 1.00589,0 1.78288,-0.197202 2.32717,-0.599507 0.544364,-0.398396 0.812595,-0.895435 0.812595,-1.49103 0,-0.429918 -0.122264,-0.828315 -0.366874,-1.19511 -0.248436,-0.366791 -0.776997,-0.654734 -1.5856,-0.859837l-3.0135 -0.788891c-1.03342,-0.268231 -1.7947,-0.575886 -2.28774,-0.915147 -0.493046,-0.343086 -0.891359,-0.828315 -1.1872,-1.45144 -0.295844,-0.623211 -0.445721,-1.28984 -0.445721,-1.9998 0,-1.40819 0.524569,-2.54017 1.57379,-3.39219 1.04922,-0.851936 2.3863,-1.27794 4.01931,-1.27794 1.35688,0 2.56778,0.299754 3.63672,0.891442 1.06494,0.591606 1.74729,1.43173 2.03922,2.52038l-2.70585 0.670536c-0.414116,-1.19511 -1.38449,-1.7907 -2.91095,-1.7907 -0.88745,0 -1.56198,0.181482 -2.02741,0.552182 -0.465433,0.370783 -0.69815,0.840208 -0.69815,1.4121 0,0.899344 0.729755,1.53046 2.19309,1.89334l2.68215 0.670536c1.62511,0.406214 2.71375,1.00971 3.26993,1.80651 0.556091,0.800701 0.832224,1.68025 0.832224,2.64272 0,1.54618 -0.583788,2.76889 -1.75128,3.65643 -1.16758,0.891359 -2.67824,1.33708 -4.53606,1.33708 -1.5619,0 -2.93058,-0.327367 -4.10606,-0.986093 -1.17539,-0.654734 -1.95638,-1.67235 -2.33898,-3.06083z"/>
  <path class="fil1" d="M35.61 28.0365l-1.07609 0 2.17787 -6.86314 1.56863 0 2.16756 6.86314 -1.32835 0 -1.73506 -5.71154 -0.0703639 0 -1.7042 5.71154zm7.37116 0.106378c-0.751713,0 -1.32494,-0.271142 -1.71967,-0.810017 -0.3964,-0.540621 -0.593768,-1.15843 -0.593768,-1.85525 0,-0.751713 0.217912,-1.37642 0.655565,-1.87579 0.437654,-0.499451 1.01603,-0.749966 1.7334,-0.749966 0.679602,0 1.2391,0.243695 1.67676,0.729339 0.435907,0.485727 0.655565,1.119 0.655565,1.89642 0,0.80145 -0.226562,1.44504 -0.681349,1.93243 -0.454787,0.487474 -1.02976,0.732833 -1.72649,0.732833zm0.0395069 -0.945588c0.77051,0 1.15668,-0.574971 1.15668,-1.72483 0,-0.519994 -0.0926541,-0.930201 -0.276299,-1.22879 -0.185391,-0.300336 -0.46851,-0.451377 -0.849524,-0.451377 -0.396483,0 -0.689916,0.156198 -0.880381,0.4651 -0.190548,0.310649 -0.286612,0.722519 -0.286612,1.23569 0,0.552598 0.101221,0.974781 0.303746,1.26655 0.202525,0.291769 0.480487,0.437654 0.83239,0.437654zm3.41348 0.83921l0 -5.07826 3.14758 0 0 0.890694 -2.00113 0 0 4.18757 -1.14645 0zm4.9822 -0.513174l0 0.513174 -1.14645 0 0 -5.07826 1.14645 0 0 2.20706c0,0.332939 -0.00856676,0.686422 -0.0240368,1.06062 0.166511,-0.271142 0.40846,-0.602418 0.724266,-0.995408l1.3009 -1.61837 0 -0.653902 1.14637 0 0 5.07826 -1.14637 0 0 -2.08688c0,-0.415363 0.0119768,-0.780906 0.0360137,-1.09671 -0.161355,0.262575 -0.382677,0.571561 -0.664132,0.926791l-1.37301 1.74363zm7.45691 -1.35238l0.986841 0.101304c-0.128751,0.636685 -0.374193,1.10694 -0.739736,1.41243 -0.365543,0.305492 -0.806607,0.458197 -1.32319,0.458197 -0.700229,0 -1.2391,-0.255672 -1.61496,-0.7671 -0.37752,-0.511427 -0.566321,-1.13788 -0.566321,-1.87928 0,-0.76369 0.205935,-1.3953 0.617805,-1.89467 0.413617,-0.499451 0.962804,-0.749966 1.64931,-0.749966 1.10694,0 1.766,0.583455 1.97709,1.75053l-0.986841 0.135571c-0.085834,-0.629865 -0.396483,-0.945671 -0.930201,-0.945671 -0.387833,0 -0.671035,0.169921 -0.846113,0.511427 -0.176741,0.339843 -0.264239,0.751713 -0.264239,1.23395 0,0.513174 0.0909075,0.907911 0.274552,1.18596 0.181898,0.277962 0.437654,0.418773 0.765436,0.418773 0.502861,0 0.837547,-0.324373 1.00056,-0.971454zm2.71159 1.86556l0 -4.18757 -1.40728 0 0 -0.890694 3.94213 0 0 0.890694 -1.38848 0 0 4.18757 -1.14637 0zm4.31283 -0.513174l0 0.513174 -1.14645 0 0 -5.07826 1.14645 0 0 2.20706c0,0.332939 -0.00856676,0.686422 -0.0240368,1.06062 0.166511,-0.271142 0.40846,-0.602418 0.724266,-0.995408l1.3009 -1.61837 0 -0.653902 1.14637 0 0 5.07826 -1.14637 0 0 -2.08688c0,-0.415363 0.0119768,-0.780906 0.0360137,-1.09671 -0.161355,0.262575 -0.382677,0.571561 -0.664132,0.926791l-1.37301 1.74363zm7.37282 -2.80599l1.76941 3.31916 -1.23228 0 -1.33176 -2.45417 -0.906164 0.955901 0 1.49827 -1.14645 0 0 -5.07826 1.14645 0 0 1.50858c0,0.324289 -0.0103134,0.614395 -0.0343502,0.870067 0.166511,-0.221405 0.326119,-0.41187 0.47716,-0.568068l1.7042 -1.81058 1.12749 0 -1.57371 1.7591zm6.66752 3.31916l-1.09156 0c-0.0978108,-0.308903 -0.156198,-0.650409 -0.176741,-1.02627 -0.303829,0.755123 -0.87697,1.13264 -1.71967,1.13264 -0.506271,0 -0.911321,-0.149295 -1.21848,-0.44622 -0.307239,-0.296843 -0.459944,-0.669289 -0.459944,-1.11892 0,-1.16533 1.02452,-1.74887 3.07197,-1.74887 0.0806773,0 0.188801,0.00174662 0.326119,0.00515669l0 -0.382677c0,-0.526898 -0.358723,-0.789473 -1.07609,-0.789473 -0.696819,0 -1.09147,0.262575 -1.18587,0.789473l-0.974864 -0.145885c0.0532304,-0.422183 0.271225,-0.770593 0.652155,-1.04348 0.38276,-0.272889 0.935358,-0.410123 1.65962,-0.410123 0.39299,0 0.712206,0.0342671 0.961058,0.0994743 0.247105,0.0652904 0.456534,0.175078 0.628118,0.331276 0.171668,0.156198 0.290022,0.324373 0.355313,0.508017 0.0652072,0.181898 0.0978108,0.490801 0.0978108,0.926708l0 2.2929c0,0.332939 0.0497371,0.674446 0.151041,1.02627zm-1.2683 -2.58458c-1.48114,0 -2.22253,0.353483 -2.22253,1.06062 0,0.211092 0.0755206,0.391243 0.224815,0.540621 0.149378,0.149295 0.374193,0.224815 0.676192,0.224815 0.435907,0 0.765436,-0.139064 0.988588,-0.415363 0.221322,-0.276299 0.332939,-0.590358 0.332939,-0.942178l0 -0.46851zm5.06279 2.58458l0 -5.07826 2.63956 0c0.610985,0 1.02976,0.128751 1.25798,0.387833 0.228225,0.257502 0.341506,0.549188 0.341506,0.87356 0,0.562911 -0.326036,0.942178 -0.979938,1.13614 0.777413,0.192212 1.16699,0.616142 1.16699,1.27345 0,0.41528 -0.135571,0.753376 -0.403303,1.01429 -0.267732,0.262575 -0.646999,0.39299 -1.13614,0.39299l-2.88667 0zm1.14645 -2.99138l1.31288 0c0.44622,0 0.669372,-0.214502 0.669372,-0.643589 0,-0.404967 -0.223152,-0.609238 -0.669372,-0.609238l-1.31288 0 0 1.25283zm0 2.10069l1.31288 0c0.288359,0 0.492547,-0.0566404 0.612732,-0.173331 0.121848,-0.115028 0.181898,-0.293516 0.181898,-0.535464 0,-0.475414 -0.264322,-0.713952 -0.79463,-0.713952l-1.31288 0 0 1.42275zm8.2018 0.890694l-1.23744 0 0 -6.86314 2.81123 0c0.80145,0 1.39522,0.202525 1.78313,0.605828 0.386087,0.403303 0.580045,0.880464 0.580045,1.42965 0,0.628118 -0.209345,1.13614 -0.628118,1.52397 -0.418773,0.38958 -0.950828,0.583538 -1.59433,0.583538l-1.71452 0 0 2.72016zm0 -3.78077l1.46392 0c0.381013,0 0.672782,-0.0944007 0.87356,-0.281456 0.202525,-0.188801 0.301999,-0.437654 0.301999,-0.750049 0,-0.281456 -0.0926541,-0.521741 -0.277962,-0.724183 -0.187055,-0.200862 -0.523487,-0.300336 -1.00913,-0.300336l-1.35238 0 0 2.05602zm6.70861 3.88715c-0.751713,0 -1.32494,-0.271142 -1.71967,-0.810017 -0.3964,-0.540621 -0.593768,-1.15843 -0.593768,-1.85525 0,-0.751713 0.217912,-1.37642 0.655565,-1.87579 0.437654,-0.499451 1.01603,-0.749966 1.7334,-0.749966 0.679602,0 1.2391,0.243695 1.67676,0.729339 0.435907,0.485727 0.655565,1.119 0.655565,1.89642 0,0.80145 -0.226562,1.44504 -0.681349,1.93243 -0.454787,0.487474 -1.02976,0.732833 -1.72649,0.732833zm0.0395069 -0.945588c0.77051,0 1.15668,-0.574971 1.15668,-1.72483 0,-0.519994 -0.0926541,-0.930201 -0.276299,-1.22879 -0.185391,-0.300336 -0.46851,-0.451377 -0.849524,-0.451377 -0.396483,0 -0.689916,0.156198 -0.880381,0.4651 -0.190548,0.310649 -0.286612,0.722519 -0.286612,1.23569 0,0.552598 0.101221,0.974781 0.303746,1.26655 0.202525,0.291769 0.480487,0.437654 0.83239,0.437654zm6.34997 -1.02635l0.986841 0.101304c-0.128751,0.636685 -0.374193,1.10694 -0.739736,1.41243 -0.365543,0.305492 -0.806607,0.458197 -1.32319,0.458197 -0.700229,0 -1.2391,-0.255672 -1.61496,-0.7671 -0.37752,-0.511427 -0.566321,-1.13788 -0.566321,-1.87928 0,-0.76369 0.205935,-1.3953 0.617805,-1.89467 0.413617,-0.499451 0.962804,-0.749966 1.64931,-0.749966 1.10694,0 1.766,0.583455 1.97709,1.75053l-0.986841 0.135571c-0.085834,-0.629865 -0.396483,-0.945671 -0.930201,-0.945671 -0.387833,0 -0.671035,0.169921 -0.846113,0.511427 -0.176741,0.339843 -0.264239,0.751713 -0.264239,1.23395 0,0.513174 0.0909075,0.907911 0.274552,1.18596 0.181898,0.277962 0.437654,0.418773 0.765436,0.418773 0.502861,0 0.837547,-0.324373 1.00056,-0.971454zm4.79681 0l0.986841 0.101304c-0.128751,0.636685 -0.374193,1.10694 -0.739736,1.41243 -0.365543,0.305492 -0.806607,0.458197 -1.32319,0.458197 -0.700229,0 -1.2391,-0.255672 -1.61496,-0.7671 -0.37752,-0.511427 -0.566321,-1.13788 -0.566321,-1.87928 0,-0.76369 0.205935,-1.3953 0.617805,-1.89467 0.413617,-0.499451 0.962804,-0.749966 1.64931,-0.749966 1.10694,0 1.766,0.583455 1.97709,1.75053l-0.986841 0.135571c-0.085834,-0.629865 -0.396483,-0.945671 -0.930201,-0.945671 -0.387833,0 -0.671035,0.169921 -0.846113,0.511427 -0.176741,0.339843 -0.264239,0.751713 -0.264239,1.23395 0,0.513174 0.0909075,0.907911 0.274552,1.18596 0.181898,0.277962 0.437654,0.418773 0.765436,0.418773 0.502861,0 0.837547,-0.324373 1.00056,-0.971454zm3.01192 1.35238l0 0.513174 -1.14645 0 0 -5.07826 1.14645 0 0 2.20706c0,0.332939 -0.00856676,0.686422 -0.0240368,1.06062 0.166511,-0.271142 0.40846,-0.602418 0.724266,-0.995408l1.3009 -1.61837 0 -0.653902 1.14637 0 0 5.07826 -1.14637 0 0 -2.08688c0,-0.415363 0.0119768,-0.780906 0.0360137,-1.09671 -0.161355,0.262575 -0.382677,0.571561 -0.664132,0.926791l-1.37301 1.74363zm5.67203 0l0 0.513174 -1.14645 0 0 -5.07826 1.14645 0 0 2.20706c0,0.332939 -0.00856676,0.686422 -0.0240368,1.06062 0.166511,-0.271142 0.40846,-0.602418 0.724266,-0.995408l1.3009 -1.61837 0 -0.653902 1.14637 0 0 5.07826 -1.14637 0 0 -2.08688c0,-0.415363 0.0119768,-0.780906 0.0360137,-1.09671 -0.161355,0.262575 -0.382677,0.571561 -0.664132,0.926791l-1.37301 1.74363z"/>
  <polygon class="fil2" points="5.0222,24.4658 16.6405,24.4658 16.6405,22.2041 7.71766,22.2041 7.71766,3.5839 5.0222,3.5839 "/>
  <path class="fil2" d="M12.8091 19.8028l2.08039 0 0 -6.98233 1.96079 0c1.8891,0.0716947 2.74993,0.908659 3.22817,3.13244 0.454288,2.00862 0.813011,3.37165 1.076,3.84989l2.15217 0c-0.334852,-0.621714 -0.717446,-2.17604 -1.24351,-4.42378 -0.382593,-1.67385 -1.12383,-2.82163 -2.36725,-3.25204l0 -0.0717778c1.69772,-0.57389 3.03679,-1.98466 3.03679,-4.11288 0,-1.24343 -0.454288,-2.34338 -1.2673,-3.06075 -1.00431,-0.908659 -2.43903,-1.31521 -4.6629,-1.31521 -1.43473,0 -2.94123,0.119602 -3.99336,0.334769l0 15.9017zm2.08039 -14.443c0.334769,-0.0956483 1.05213,-0.191297 2.05644,-0.191297 2.19991,0.0238705 3.70641,0.93253 3.70641,3.01292 0,1.84127 -1.41085,3.06075 -3.63464,3.06075l-2.12822 0 0 -5.88237z"/>
 </g>
</svg>
