<?xml version="1.0" encoding="UTF-8"?>
<!DOCTYPE svg PUBLIC "-//W3C//DTD SVG 1.1//EN" "http://www.w3.org/Graphics/SVG/1.1/DTD/svg11.dtd">
<!-- Creator: CorelDRAW -->
<svg xmlns="http://www.w3.org/2000/svg" xml:space="preserve" width="165.053mm" height="37.0742mm" style="shape-rendering:geometricPrecision; text-rendering:geometricPrecision; image-rendering:optimizeQuality; fill-rule:evenodd; clip-rule:evenodd"
viewBox="0 0 165.805 37.2431"
 xmlns:xlink="http://www.w3.org/1999/xlink">
 <defs>
  <style type="text/css">
   <![CDATA[
    .fil1 {fill:#393185}
    .fil2 {fill:#E31E24}
    .fil0 {fill:#393185;fill-rule:nonzero}
   ]]>
  </style>
 </defs>
 <g id="Layer_x0020_1">
  <metadata id="CorelCorpID_0Corel-Layer"/>
  <path class="fil0" d="M28.3579 24.5799l0 -21.8597 4.35676 0 5.17095 15.4774c0.47847,1.44033 0.829662,2.51932 1.04333,3.23698 0.249431,-0.7939 0.636185,-1.96441 1.16559,-3.5067l5.23203 -15.2077 3.89346 0 0 21.8597 -2.78895 0 0 -18.2969 -6.3518 18.2969 -2.61104 0 -6.32127 -18.6073 0 18.6073 -2.78905 0zm23.127 0l8.39768 -21.8597 3.11493 0 8.94738 21.8597 -3.29816 0 -2.54976 -6.62153 -9.14085 0 -2.39727 6.62153 -3.07394 0zm6.3059 -8.97801l7.41553 0 -2.28526 -6.05144c-0.692139,-1.83743 -1.21129,-3.34889 -1.54722,-4.53487 -0.27997,1.40467 -0.671847,2.79417 -1.18075,4.17865l-2.40229 6.40766zm14.2406 8.97801l8.45886 -11.3904 -7.45611 -10.4694 3.4404 0 3.97 5.60874c0.824338,1.16056 1.40979,2.05612 1.75596,2.68226 0.488415,-0.794101 1.06352,-1.62366 1.73035,-2.48879l4.40246 -5.80221 3.14546 0 -7.68033 10.3014 8.27573 11.5583 -3.57813 0 -5.50175 -7.79726c-0.310408,-0.44773 -0.625838,-0.936346 -0.956839,-1.46052 -0.488616,0.7939 -0.834585,1.33847 -1.04323,1.63873l-5.48658 7.61905 -3.47626 0zm23.0864 0l0 -21.8597 2.89081 0 0 21.8597 -2.89081 0zm7.86838 0l0 -21.8597 2.89593 0 0 19.2792 10.7645 0 0 2.5805 -13.6604 0zm16.2255 -10.6473c0,-3.62886 0.972008,-6.46884 2.92145,-8.51994 1.94914,-2.0511 4.46344,-3.07916 7.54783,-3.07916 2.01534,0 3.8375,0.483392 5.45594,1.44546 1.61854,0.966885 2.85525,2.31058 3.7051,4.036 0.850055,1.7202 1.27247,3.67959 1.27247,5.86319 0,2.21886 -0.442808,4.20396 -1.33847,5.94968 -0.895863,1.75064 -2.16311,3.07394 -3.80204,3.97473 -1.64396,0.901086 -3.40986,1.34882 -5.30827,1.34882 -2.06135,0 -3.89878,-0.493739 -5.51722,-1.49126 -1.62346,-0.9923 -2.85023,-2.35136 -3.68481,-4.07156 -0.834585,-1.71518 -1.25198,-3.53724 -1.25198,-5.45594zm2.98243 0.0457073c0,2.63636 0.707408,4.70795 2.12232,6.22463 1.42004,1.51668 3.19619,2.27492 5.33379,2.27492 2.17838,0 3.97,-0.763462 5.37477,-2.29541 1.40467,-1.53195 2.11208,-3.7051 2.11208,-6.51957 0,-1.77636 -0.305385,-3.32859 -0.905808,-4.65712 -0.600624,-1.32822 -1.48122,-2.35629 -2.63656,-3.08921 -1.16046,-0.727801 -2.45825,-1.09426 -3.89848,-1.09426 -2.0511,0 -3.81209,0.702385 -5.28808,2.11208 -1.47599,1.40477 -2.21404,3.75613 -2.21404,7.04394zm31.8809 2.02569l0 -2.56001 9.25798 -0.0152692 0 8.10767c-1.41994,1.13485 -2.88589,1.9849 -4.39744,2.56011 -1.51166,0.569884 -3.06389,0.854877 -4.6518,0.854877 -2.14784,0 -4.1023,-0.457977 -5.85294,-1.37925 -1.75596,-0.916155 -3.07916,-2.2496 -3.97503,-3.98507 -0.895863,-1.74069 -1.34369,-3.68481 -1.34369,-5.83265 0,-2.12735 0.447831,-4.11225 1.33867,-5.9549 0.885616,-1.84738 2.16813,-3.21639 3.8375,-4.11225 1.66927,-0.890539 3.59319,-1.33847 5.77147,-1.33847 1.57775,0 3.00794,0.254454 4.28543,0.768385 1.27749,0.509109 2.28014,1.22154 3.00292,2.13759 0.7277,0.916255 1.27729,2.10706 1.65922,3.57803l-2.61104 0.717655c-0.330901,-1.11455 -0.738047,-1.99013 -1.22144,-2.62621 -0.488716,-0.636185 -1.18588,-1.14509 -2.09189,-1.52682 -0.900885,-0.381832 -1.90866,-0.575108 -3.00794,-0.575108 -1.3233,0 -2.46829,0.203523 -3.43036,0.605647 -0.967086,0.401923 -1.74069,0.931323 -2.33609,1.5879 -0.590377,0.656477 -1.04835,1.37413 -1.37925,2.16311 -0.554615,1.34882 -0.834585,2.81456 -0.834585,4.39724 0,1.94934 0.335923,3.57803 1.00757,4.89108 0.671847,1.31326 1.64918,2.28536 2.93169,2.92145 1.28252,0.636185 2.64148,0.956839 4.08181,0.956839 1.2572,0 2.47854,-0.244207 3.66954,-0.727801 1.19602,-0.47847 2.09681,-0.9924 2.7127,-1.54209l0 -4.07166 -6.42303 0z"/>
  <path class="fil0" d="M0.074538 37.1225l0 -7.0783 0.915753 0 0 7.0783 -0.915753 0zm2.52113 0l0 -7.0783 0.939762 0 3.63649 5.5572 0 -5.5572 0.878584 0 0 7.0783 -0.939762 0 -3.63649 -5.56212 0 5.56212 -0.878584 0zm8.75591 0l0 -6.24261 -2.28084 0 0 -0.83569 5.48708 0 0 0.83569 -2.29049 0 0 6.24261 -0.915753 0zm4.16529 0l0 -7.0783 5.005 0 0 0.83569 -4.08955 0 0 2.16713 3.83017 0 0 0.830567 -3.83017 0 0 2.40933 4.25078 0 0 0.835589 -5.16623 0zm9.67156 -2.77699l0 -0.828959 2.9321 -0.00482187 0 2.62531c-0.44974,0.367366 -0.913844,0.642715 -1.39272,0.828959 -0.47857,0.184637 -0.970401,0.276956 -1.47318,0.276956 -0.680285,0 -1.29909,-0.148574 -1.85381,-0.446726 -0.556122,-0.296645 -0.975323,-0.728504 -1.25881,-1.29035 -0.283787,-0.563757 -0.42563,-1.19321 -0.42563,-1.88877 0,-0.688723 0.141843,-1.33154 0.424023,-1.92814 0.280472,-0.598213 0.686513,-1.04152 1.21531,-1.33164 0.528497,-0.288408 1.13796,-0.433265 1.82789,-0.433265 0.499666,0 0.95262,0.0822731 1.35715,0.248828 0.404836,0.164747 0.722075,0.395494 0.951214,0.692139 0.230445,0.296545 0.404635,0.682294 0.525383,1.15845l-0.826749 0.232454c-0.104976,-0.361037 -0.23376,-0.644422 -0.386955,-0.850457 -0.154902,-0.205934 -0.375603,-0.370681 -0.662404,-0.494342 -0.285394,-0.12356 -0.604642,-0.186144 -0.952821,-0.186144 -0.419,0 -0.781846,0.0657984 -1.08643,0.195989 -0.306289,0.130291 -0.5513,0.301668 -0.739755,0.514132 -0.186948,0.212765 -0.332106,0.445119 -0.436781,0.700376 -0.175797,0.436881 -0.264499,0.911534 -0.264499,1.42406 0,0.631062 0.106282,1.15845 0.319047,1.58368 0.212865,0.425228 0.522369,0.739855 0.928712,0.94599 0.405941,0.205934 0.836393,0.309805 1.29276,0.309805 0.397904,0 0.784859,-0.0790585 1.16207,-0.235769 0.378918,-0.154902 0.664112,-0.321257 0.859096,-0.499264l0 -1.31848 -2.03423 0zm4.29729 2.77699l0 -7.0783 3.06932 0c0.617299,0 1.08653,0.0642916 1.40718,0.191267 0.320654,0.126875 0.577117,0.350992 0.770394,0.672249 0.192071,0.323166 0.287002,0.67908 0.287002,1.06804 0,0.50268 -0.157916,0.924492 -0.477264,1.26885 -0.31744,0.344563 -0.809069,0.563757 -1.47318,0.657683 0.243303,0.118538 0.427237,0.235568 0.552907,0.352699 0.267513,0.250536 0.520762,0.565163 0.76075,0.940967l1.20426 1.92654 -1.15263 0 -0.915753 -1.47338c-0.267513,-0.42342 -0.488214,-0.7497 -0.662404,-0.973816 -0.172382,-0.225824 -0.327083,-0.384142 -0.464205,-0.473045 -0.137021,-0.0907114 -0.275449,-0.153295 -0.417393,-0.18966 -0.104976,-0.0211961 -0.274143,-0.032849 -0.510917,-0.032849l-1.06242 0 0 3.14275 -0.915652 0zm0.915652 -3.95353l1.96973 0c0.417594,0 0.746485,-0.0445018 0.981853,-0.133606 0.236975,-0.0889032 0.415786,-0.230646 0.538442,-0.425027 0.122355,-0.194482 0.183633,-0.40564 0.183633,-0.634578 0,-0.334517 -0.117633,-0.609866 -0.356215,-0.825544 -0.236774,-0.215979 -0.612678,-0.323166 -1.12681,-0.323166l-2.19063 0 0 2.34192zm5.29371 3.95353l2.65956 -7.0783 0.986474 0 2.83395 7.0783 -1.04464 0 -0.807562 -2.14402 -2.89513 0 -0.759143 2.14402 -0.973515 0zm1.99716 -2.90718l2.34865 0 -0.723983 -1.95939c-0.219194,-0.594998 -0.383539,-1.08452 -0.489922,-1.46836 -0.0887023,0.454762 -0.212664,0.904602 -0.373996,1.35294l-0.76075 2.07481zm6.25908 2.90718l0 -6.24261 -2.28074 0 0 -0.83569 5.48708 0 0 0.83569 -2.29069 0 0 6.24261 -0.915652 0zm4.16539 0l0 -7.0783 5.0049 0 0 0.83569 -4.08955 0 0 2.16713 3.83007 0 0 0.830567 -3.83007 0 0 2.40933 4.25068 0 0 0.835589 -5.16603 0zm6.43147 0l0 -7.0783 2.38411 0c0.538341,0 0.949405,0.0345567 1.23309,0.102163 0.396599,0.0923187 0.735134,0.262089 1.01571,0.505894 0.364151,0.316535 0.638295,0.718659 0.818713,1.20969 0.182025,0.491328 0.272335,1.05157 0.272335,1.68273 0,0.537136 -0.0611774,1.0136 -0.18524,1.42878 -0.122455,0.415384 -0.278965,0.759745 -0.472242,1.03168 -0.191971,0.271933 -0.401521,0.486205 -0.630258,0.641208 -0.227431,0.15651 -0.503081,0.275047 -0.825443,0.355713 -0.32407,0.0809672 -0.694751,0.120446 -1.11234,0.120446l-2.49843 0zm0.915753 -0.835589l1.4782 0c0.456068,0 0.815498,-0.0427941 1.07497,-0.13009 0.259477,-0.0874968 0.466013,-0.209249 0.620715,-0.367567 0.217486,-0.220801 0.386653,-0.520762 0.507702,-0.894858 0.120848,-0.375704 0.182226,-0.828959 0.182226,-1.36459 0,-0.739956 -0.119442,-1.30843 -0.356416,-1.70574 -0.238381,-0.398809 -0.52699,-0.664112 -0.867132,-0.799325 -0.245212,-0.0971405 -0.641509,-0.144857 -1.18477,-0.144857l-1.4555 0 0 5.40702zm8.71713 0.835589l0 -7.0783 0.91736 0 0 6.24271 3.40906 0 0 0.835589 -4.32642 0zm5.13911 -3.44763c0,-1.17513 0.307695,-2.0946 0.924995,-2.75891 0.6175,-0.664011 1.41391,-0.996921 2.39064,-0.996921 0.638094,0 1.21531,0.15651 1.72804,0.467922 0.512524,0.313321 0.9042,0.748394 1.17352,1.30703 0.26912,0.556926 0.402927,1.1914 0.402927,1.89841 0,0.718659 -0.140236,1.36137 -0.424023,1.92654 -0.283686,0.566871 -0.684906,0.995515 -1.20406,1.28714 -0.520561,0.291723 -1.08,0.436881 -1.68122,0.436881 -0.65276,0 -1.2348,-0.159925 -1.74732,-0.483091 -0.514332,-0.321257 -0.902593,-0.761353 -1.16709,-1.31838 -0.264299,-0.555318 -0.396398,-1.14529 -0.396398,-1.76661zm0.944383 0.0148674c0,0.853671 0.224217,1.52431 0.672349,2.01544 0.449639,0.491228 1.01219,0.736641 1.68926,0.736641 0.689929,0 1.2572,-0.247221 1.70212,-0.74307 0.444918,-0.49615 0.668833,-1.19984 0.668833,-2.11117 0,-0.575309 -0.0964373,-1.07779 -0.2867,-1.50804 -0.190263,-0.43005 -0.469228,-0.76296 -0.835087,-1.00044 -0.367567,-0.235568 -0.778531,-0.354106 -1.2347,-0.354106 -0.649646,0 -1.20727,0.227331 -1.6749,0.683901 -0.467319,0.454662 -0.70118,1.21622 -0.70118,2.28084zm10.0973 0.655774l0 -0.828959 2.9319 -0.00482187 0 2.62531c-0.449539,0.367366 -0.913945,0.642715 -1.39251,0.828959 -0.478771,0.184637 -0.970501,0.276956 -1.47338,0.276956 -0.680285,0 -1.29919,-0.148574 -1.85361,-0.446726 -0.556323,-0.296645 -0.975323,-0.728504 -1.25911,-1.29035 -0.283686,-0.563757 -0.425429,-1.19321 -0.425429,-1.88877 0,-0.688723 0.141743,-1.33154 0.424023,-1.92814 0.280371,-0.598213 0.686513,-1.04152 1.21531,-1.33164 0.528597,-0.288408 1.13806,-0.433265 1.82779,-0.433265 0.499666,0 0.952821,0.0822731 1.35736,0.248828 0.404635,0.164747 0.722075,0.395494 0.951013,0.692139 0.230546,0.296545 0.404535,0.682294 0.525583,1.15845l-0.82695 0.232454c-0.104775,-0.361037 -0.233861,-0.644422 -0.386955,-0.850457 -0.154702,-0.205934 -0.375603,-0.370681 -0.662404,-0.494342 -0.285394,-0.12356 -0.604441,-0.186144 -0.95262,-0.186144 -0.419201,0 -0.781846,0.0657984 -1.08643,0.195989 -0.306289,0.130291 -0.551501,0.301668 -0.739956,0.514132 -0.187048,0.212765 -0.332106,0.445119 -0.436881,0.700376 -0.175596,0.436881 -0.264299,0.911534 -0.264299,1.42406 0,0.631062 0.106382,1.15845 0.319147,1.58368 0.212664,0.425228 0.522369,0.739855 0.928511,0.94599 0.406142,0.205934 0.836594,0.309805 1.29276,0.309805 0.398105,0 0.784859,-0.0790585 1.16207,-0.235769 0.378918,-0.154902 0.664112,-0.321257 0.859297,-0.499264l0 -1.31848 -2.03423 0zm4.43913 2.77699l0 -7.0783 0.915753 0 0 7.0783 -0.915753 0zm2.21947 -2.27421l0.864119 -0.0775517c0.0403831,0.354407 0.135515,0.644422 0.285394,0.871753 0.14988,0.227632 0.382133,0.410461 0.696358,0.550496 0.314225,0.140035 0.669034,0.209249 1.06222,0.209249 0.349786,0 0.657783,-0.0527392 0.925296,-0.158117 0.267714,-0.107086 0.46752,-0.252244 0.598012,-0.43668 0.130391,-0.186144 0.196692,-0.387256 0.196692,-0.606651 0,-0.222308 -0.0628852,-0.415183 -0.190263,-0.581738 -0.125871,-0.166354 -0.333512,-0.304782 -0.622121,-0.41679 -0.187048,-0.0742367 -0.596606,-0.18966 -1.23339,-0.34617 -0.634879,-0.15651 -1.0814,-0.303175 -1.33626,-0.441703 -0.330298,-0.176199 -0.576916,-0.397101 -0.739654,-0.659189 -0.161231,-0.261888 -0.241897,-0.555318 -0.241897,-0.881598 0,-0.356014 0.098346,-0.690532 0.296645,-1.00034 0.198299,-0.311513 0.488415,-0.547282 0.868941,-0.708614 0.381832,-0.159925 0.804247,-0.240591 1.27006,-0.240591 0.514332,0 0.965478,0.0838804 1.35896,0.25365 0.391777,0.168163 0.692942,0.416991 0.904301,0.744878 0.20945,0.327887 0.32407,0.700376 0.340143,1.11576l-0.878584 0.0676066c-0.0483191,-0.446625 -0.207943,-0.786165 -0.480378,-1.0136 -0.272335,-0.228938 -0.673755,-0.342754 -1.20567,-0.342754 -0.554515,0 -0.957442,0.103771 -1.2123,0.311513 -0.253048,0.207642 -0.380325,0.458077 -0.380325,0.749901 0,0.255458 0.0903095,0.464707 0.269321,0.627948 0.177204,0.164747 0.636788,0.332709 1.38126,0.504287 0.744677,0.172984 1.25559,0.322864 1.53295,0.451447 0.402927,0.191066 0.70118,0.431658 0.89305,0.721874 0.19177,0.291622 0.286901,0.627948 0.286901,1.00677 0,0.377512 -0.104876,0.731919 -0.316033,1.06483 -0.210957,0.332709 -0.514132,0.591583 -0.909022,0.777827 -0.394991,0.184637 -0.839909,0.276956 -1.33315,0.276956 -0.626943,0 -1.15243,-0.0923187 -1.57474,-0.280371 -0.424023,-0.186245 -0.756129,-0.466415 -0.997926,-0.842018 -0.239988,-0.374096 -0.367466,-0.799325 -0.378918,-1.27227zm8.52396 2.27421l0 -6.24261 -2.28064 0 0 -0.83569 5.48708 0 0 0.83569 -2.29069 0 0 6.24261 -0.915753 0zm4.30231 0l0 -7.0783 0.915753 0 0 7.0783 -0.915753 0zm7.46977 -2.48196l0.917159 0.237376c-0.19187,0.767983 -0.538241,1.35454 -1.0365,1.76018 -0.499766,0.403731 -1.10893,0.604843 -1.8312,0.604843 -0.746083,0 -1.35233,-0.155003 -1.81975,-0.464808 -0.467319,-0.311613 -0.823736,-0.761353 -1.06694,-1.34972 -0.243504,-0.589975 -0.366261,-1.22295 -0.366261,-1.89861 0,-0.736741 0.137222,-1.37946 0.412772,-1.92814 0.275751,-0.548789 0.667427,-0.96578 1.17674,-1.25077 0.507702,-0.285193 1.06704,-0.426836 1.67811,-0.426836 0.692942,0 1.27508,0.179615 1.74722,0.540451 0.472242,0.360937 0.801133,0.866831 0.986574,1.5211l-0.901287 0.217486c-0.161131,-0.515739 -0.393083,-0.889735 -0.699472,-1.1256 -0.304682,-0.235568 -0.688321,-0.352499 -1.15253,-0.352499 -0.532013,0 -0.975122,0.129989 -1.33284,0.390471 -0.357823,0.262089 -0.609464,0.611473 -0.752814,1.05157 -0.145259,0.438288 -0.217687,0.891342 -0.217687,1.35776 0,0.603236 0.0852868,1.12741 0.256262,1.57735 0.172382,0.448032 0.438288,0.784357 0.801033,1.00677 0.362845,0.222509 0.754622,0.33291 1.17684,0.33291 0.512725,0 0.946191,-0.151487 1.30241,-0.453155 0.356316,-0.303175 0.596405,-0.753115 0.722175,-1.34811zm1.73426 0.207742l0.864119 -0.0775517c0.0401822,0.354407 0.135414,0.644422 0.285394,0.871753 0.149679,0.227632 0.381832,0.410461 0.696157,0.550496 0.314426,0.140035 0.669235,0.209249 1.06232,0.209249 0.349786,0 0.657683,-0.0527392 0.925296,-0.158117 0.267714,-0.107086 0.46742,-0.252244 0.598012,-0.43668 0.130492,-0.186144 0.196692,-0.387256 0.196692,-0.606651 0,-0.222308 -0.0627847,-0.415183 -0.190263,-0.581738 -0.12577,-0.166354 -0.333713,-0.304782 -0.622021,-0.41679 -0.187249,-0.0742367 -0.596606,-0.18966 -1.23339,-0.34617 -0.63498,-0.15651 -1.0814,-0.303175 -1.33626,-0.441703 -0.330398,-0.176199 -0.577017,-0.397101 -0.739755,-0.659189 -0.161131,-0.261888 -0.241797,-0.555318 -0.241797,-0.881598 0,-0.356014 0.098346,-0.690532 0.296645,-1.00034 0.198199,-0.311513 0.488415,-0.547282 0.86884,-0.708614 0.381932,-0.159925 0.804348,-0.240591 1.27016,-0.240591 0.514332,0 0.965378,0.0838804 1.35876,0.25365 0.391877,0.168163 0.693143,0.416991 0.9042,0.744878 0.209751,0.327887 0.32417,0.700376 0.340343,1.11576l-0.878484 0.0676066c-0.0484196,-0.446625 -0.207943,-0.786165 -0.480479,-1.0136 -0.272335,-0.228938 -0.673856,-0.342754 -1.20567,-0.342754 -0.554414,0 -0.957442,0.103771 -1.2123,0.311513 -0.253048,0.207642 -0.380425,0.458077 -0.380425,0.749901 0,0.255458 0.0903095,0.464707 0.269321,0.627948 0.177405,0.164747 0.636687,0.332709 1.38136,0.504287 0.744778,0.172984 1.25569,0.322864 1.53305,0.451447 0.402927,0.191066 0.701079,0.431658 0.892949,0.721874 0.19187,0.291622 0.286801,0.627948 0.286801,1.00677 0,0.377512 -0.104775,0.731919 -0.315832,1.06483 -0.211158,0.332709 -0.514132,0.591583 -0.909123,0.777827 -0.394891,0.184637 -0.839808,0.276956 -1.33305,0.276956 -0.626943,0 -1.15253,-0.0923187 -1.57474,-0.280371 -0.424023,-0.186245 -0.756129,-0.466415 -0.997926,-0.842018 -0.240089,-0.374096 -0.367466,-0.799325 -0.378918,-1.27227zm9.13824 0l0.863918 -0.0775517c0.0402827,0.354407 0.135414,0.644422 0.285294,0.871753 0.14998,0.227632 0.382133,0.410461 0.696358,0.550496 0.314526,0.140035 0.669034,0.209249 1.06222,0.209249 0.349786,0 0.657783,-0.0527392 0.925296,-0.158117 0.267714,-0.107086 0.467621,-0.252244 0.598012,-0.43668 0.130693,-0.186144 0.196692,-0.387256 0.196692,-0.606651 0,-0.222308 -0.0627847,-0.415183 -0.190263,-0.581738 -0.125871,-0.166354 -0.333512,-0.304782 -0.622121,-0.41679 -0.187048,-0.0742367 -0.596606,-0.18966 -1.23329,-0.34617 -0.63498,-0.15651 -1.0815,-0.303175 -1.33616,-0.441703 -0.330499,-0.176199 -0.577117,-0.397101 -0.739855,-0.659189 -0.161131,-0.261888 -0.241797,-0.555318 -0.241797,-0.881598 0,-0.356014 0.0982455,-0.690532 0.296545,-1.00034 0.198299,-0.311513 0.488415,-0.547282 0.868941,-0.708614 0.381932,-0.159925 0.804348,-0.240591 1.27006,-0.240591 0.514332,0 0.965679,0.0838804 1.35896,0.25365 0.391777,0.168163 0.692942,0.416991 0.904301,0.744878 0.20945,0.327887 0.32407,0.700376 0.340143,1.11576l-0.878584 0.0676066c-0.0483191,-0.446625 -0.207843,-0.786165 -0.480378,-1.0136 -0.272335,-0.228938 -0.673655,-0.342754 -1.20567,-0.342754 -0.554515,0 -0.957442,0.103771 -1.2123,0.311513 -0.252847,0.207642 -0.380325,0.458077 -0.380325,0.749901 0,0.255458 0.0903095,0.464707 0.269321,0.627948 0.177204,0.164747 0.636788,0.332709 1.38146,0.504287 0.744476,0.172984 1.25549,0.322864 1.53275,0.451447 0.403229,0.191066 0.70118,0.431658 0.89305,0.721874 0.19187,0.291622 0.287002,0.627948 0.287002,1.00677 0,0.377512 -0.104775,0.731919 -0.316134,1.06483 -0.210856,0.332709 -0.514132,0.591583 -0.908821,0.777827 -0.394991,0.184637 -0.840009,0.276956 -1.33335,0.276956 -0.626843,0 -1.15243,-0.0923187 -1.57464,-0.280371 -0.424023,-0.186245 -0.756229,-0.466415 -0.998026,-0.842018 -0.239988,-0.374096 -0.367366,-0.799325 -0.378617,-1.27227zm8.71231 2.27421l0 -2.99769 -2.6676 -4.08061 1.11395 0 1.36499 2.13428c0.251742,0.398708 0.485301,0.797617 0.702988,1.19803 0.207943,-0.370681 0.459383,-0.787672 0.756129,-1.25087l1.34098 -2.08144 1.06714 0 -2.76283 4.08061 0 2.99769 -0.915753 0zm4.1896 -2.27421l0.864018 -0.0775517c0.0401822,0.354407 0.135314,0.644422 0.285394,0.871753 0.149679,0.227632 0.381932,0.410461 0.696157,0.550496 0.314426,0.140035 0.669034,0.209249 1.06222,0.209249 0.349786,0 0.657783,-0.0527392 0.925296,-0.158117 0.267714,-0.107086 0.46752,-0.252244 0.598012,-0.43668 0.130592,-0.186144 0.196893,-0.387256 0.196893,-0.606651 0,-0.222308 -0.0628852,-0.415183 -0.190263,-0.581738 -0.125871,-0.166354 -0.333713,-0.304782 -0.622322,-0.41679 -0.187048,-0.0742367 -0.596405,-0.18966 -1.23319,-0.34617 -0.634879,-0.15651 -1.0816,-0.303175 -1.33626,-0.441703 -0.330298,-0.176199 -0.577117,-0.397101 -0.739855,-0.659189 -0.161231,-0.261888 -0.241897,-0.555318 -0.241897,-0.881598 0,-0.356014 0.098346,-0.690532 0.296645,-1.00034 0.198299,-0.311513 0.488616,-0.547282 0.868941,-0.708614 0.382032,-0.159925 0.804549,-0.240591 1.27026,-0.240591 0.514132,0 0.965478,0.0838804 1.35876,0.25365 0.391777,0.168163 0.693143,0.416991 0.904301,0.744878 0.209651,0.327887 0.32407,0.700376 0.340143,1.11576l-0.878584 0.0676066c-0.0481182,-0.446625 -0.207943,-0.786165 -0.480178,-1.0136 -0.272536,-0.228938 -0.673956,-0.342754 -1.20587,-0.342754 -0.554515,0 -0.957442,0.103771 -1.2121,0.311513 -0.253048,0.207642 -0.380526,0.458077 -0.380526,0.749901 0,0.255458 0.0903095,0.464707 0.269321,0.627948 0.177204,0.164747 0.636788,0.332709 1.38146,0.504287 0.744677,0.172984 1.25559,0.322864 1.53295,0.451447 0.402927,0.191066 0.70118,0.431658 0.892849,0.721874 0.191971,0.291622 0.286901,0.627948 0.286901,1.00677 0,0.377512 -0.104675,0.731919 -0.316033,1.06483 -0.210856,0.332709 -0.513931,0.591583 -0.908821,0.777827 -0.394991,0.184637 -0.839909,0.276956 -1.33315,0.276956 -0.626943,0 -1.15263,-0.0923187 -1.57494,-0.280371 -0.423822,-0.186245 -0.755928,-0.466415 -0.997725,-0.842018 -0.240189,-0.374096 -0.367466,-0.799325 -0.378818,-1.27227zm8.52385 2.27421l0 -6.24261 -2.28084 0 0 -0.83569 5.48708 0 0 0.83569 -2.29049 0 0 6.24261 -0.915753 0zm4.16529 0l0 -7.0783 5.0051 0 0 0.83569 -4.08965 0 0 2.16713 3.83017 0 0 0.830567 -3.83017 0 0 2.40933 4.25078 0 0 0.835589 -5.16623 0zm6.40253 0l0 -7.0783 1.37986 0 1.63773 5.01173c0.151487,0.466415 0.262892,0.8158 0.330499,1.04815 0.0788576,-0.257066 0.201514,-0.636185 0.369074,-1.13565l1.65701 -4.92423 1.23309 0 0 7.0783 -0.883306 0 0 -5.92457 -2.01182 5.92457 -0.826548 0 -2.00218 -6.02512 0 6.02512 -0.883406 0zm7.77426 -2.27421l0.864119 -0.0775517c0.0400818,0.354407 0.135414,0.644422 0.285294,0.871753 0.149779,0.227632 0.381932,0.410461 0.696157,0.550496 0.314526,0.140035 0.669335,0.209249 1.06242,0.209249 0.349786,0 0.657582,-0.0527392 0.925095,-0.158117 0.267915,-0.107086 0.467621,-0.252244 0.598213,-0.43668 0.130492,-0.186144 0.196692,-0.387256 0.196692,-0.606651 0,-0.222308 -0.0627847,-0.415183 -0.190263,-0.581738 -0.12577,-0.166354 -0.333713,-0.304782 -0.622322,-0.41679 -0.186948,-0.0742367 -0.596405,-0.18966 -1.23309,-0.34617 -0.63498,-0.15651 -1.0815,-0.303175 -1.33636,-0.441703 -0.330298,-0.176199 -0.577117,-0.397101 -0.739654,-0.659189 -0.161131,-0.261888 -0.241797,-0.555318 -0.241797,-0.881598 0,-0.356014 0.098346,-0.690532 0.296545,-1.00034 0.198098,-0.311513 0.488515,-0.547282 0.868941,-0.708614 0.381932,-0.159925 0.804348,-0.240591 1.27006,-0.240591 0.514132,0 0.965478,0.0838804 1.35886,0.25365 0.391877,0.168163 0.693043,0.416991 0.9042,0.744878 0.209751,0.327887 0.32407,0.700376 0.340143,1.11576l-0.878584 0.0676066c-0.0481182,-0.446625 -0.207642,-0.786165 -0.480178,-1.0136 -0.272536,-0.228938 -0.673856,-0.342754 -1.20567,-0.342754 -0.554716,0 -0.957643,0.103771 -1.2123,0.311513 -0.253048,0.207642 -0.380526,0.458077 -0.380526,0.749901 0,0.255458 0.0903095,0.464707 0.269321,0.627948 0.177204,0.164747 0.636788,0.332709 1.38146,0.504287 0.744778,0.172984 1.25569,0.322864 1.53295,0.451447 0.403028,0.191066 0.70118,0.431658 0.892849,0.721874 0.192071,0.291622 0.287002,0.627948 0.287002,1.00677 0,0.377512 -0.104775,0.731919 -0.315933,1.06483 -0.211057,0.332709 -0.514132,0.591583 -0.909022,0.777827 -0.394891,0.184637 -0.839808,0.276956 -1.33315,0.276956 -0.626843,0 -1.15263,-0.0923187 -1.57464,-0.280371 -0.424023,-0.186245 -0.756129,-0.466415 -0.998026,-0.842018 -0.239988,-0.374096 -0.367366,-0.799325 -0.378818,-1.27227z"/>
  <polygon class="fil1" points="0.000100456,2.69271 10.3219,2.69271 10.3219,13.0256 0.000100456,13.0256 "/>
  <polygon class="fil2" points="0.419703,3.11292 9.90251,3.11292 9.90251,12.6057 0.419703,12.6057 "/>
  <polygon class="fil1" points="11.4425,2.69311 21.7643,2.69311 21.7643,13.026 11.4425,13.026 "/>
  <polygon class="fil1" points="0.000100456,14.1245 10.3219,14.1245 10.3219,24.4572 0.000100456,24.4572 "/>
  <polygon class="fil1" points="11.4425,14.1245 21.7643,14.1245 21.7643,24.4572 11.4425,24.4572 "/>
  <polygon class="fil2" points="11.8621,3.11312 21.3449,3.11312 21.3449,12.6059 11.8621,12.6059 "/>
  <polygon class="fil2" points="0.419703,14.5445 9.90251,14.5445 9.90251,24.0372 0.419703,24.0372 "/>
  <polygon class="fil2" points="11.8621,14.5445 21.3449,14.5445 21.3449,24.0372 11.8621,24.0372 "/>
  <path class="fil1" d="M164.572 2.46518l0.063287 -0.00150683 0.0625838 -0.00472141 0.0616797 -0.00783553 0.0606752 -0.0108492 0.0596706 -0.0138629 0.0584651 -0.0165752 0.0573601 -0.0193879 0.0559537 -0.0221002 0.0545474 -0.0246116 0.0532414 -0.0272235 0.0515337 -0.0297348 0.0500269 -0.0320453 0.0483191 -0.0344563 0.0466114 -0.0365658 0.0447027 -0.0386754 0.0427941 -0.0408854 0.040785 -0.0426936 0.0387758 -0.0447027 0.0365658 -0.0465109 0.0343558 -0.0484196 0.0320453 -0.0499264 0.0297348 -0.0516342 0.0272235 -0.0532414 0.0247121 -0.0546478 0.0219998 -0.0559537 0.0194884 -0.0572597 0.0165752 -0.0583647 0.0137624 -0.0596706 0.0108492 -0.0607756 0.00783553 -0.0616797 0.00482187 -0.0625838 0.00160729 -0.0633875 -0.00160729 -0.0633875 -0.00482187 -0.0625838 -0.00783553 -0.0616797 -0.0108492 -0.0606752 -0.0137624 -0.0596706 -0.0165752 -0.0584651 -0.0194884 -0.0572597 -0.0219998 -0.0560542 -0.0247121 -0.0545474 -0.0272235 -0.053141 -0.0297348 -0.0515337 -0.0320453 -0.0501273 -0.0343558 -0.0483191 -0.0365658 -0.0466114 -0.0386754 -0.0446023 -0.0408854 -0.0427941 -0.0428945 -0.0408854 -0.0446023 -0.0386754 -0.0466114 -0.0365658 -0.0483191 -0.0343558 -0.0500269 -0.0321458 -0.0515337 -0.0296344 -0.053141 -0.0272235 -0.0546478 -0.0247121 -0.0559537 -0.0221002 -0.0573601 -0.0193879 -0.0584651 -0.0166756 -0.0596706 -0.013662 -0.0606752 -0.0109497 -0.0616797 -0.00783553 -0.0624834 -0.00472141 -0.0633875 -0.00160729 -0.0634879 0.00160729 -0.0624834 0.00472141 -0.0617802 0.00783553 -0.0606752 0.0109497 -0.0596706 0.013662 -0.0584651 0.0166756 -0.0572597 0.0193879 -0.0559537 0.0221002 -0.0546478 0.0247121 -0.0532414 0.0272235 -0.0515337 0.0296344 -0.0500269 0.0321458 -0.0483191 0.0343558 -0.0465109 0.0365658 -0.0447027 0.0386754 -0.0426936 0.0408854 -0.0408854 0.0427941 -0.0387758 0.0446023 -0.0365658 0.0466114 -0.0343558 0.0483191 -0.0321458 0.0500269 -0.0297348 0.0516342 -0.027123 0.053141 -0.0247121 0.0545474 -0.0219998 0.0560542 -0.0193879 0.0572597 -0.0166756 0.0584651 -0.0137624 0.0596706 -0.0109497 0.0606752 -0.00773508 0.0616797 -0.00472141 0.0625838 -0.00160729 0.0633875 0.00160729 0.0633875 0.00472141 0.0625838 0.00773508 0.0616797 0.0109497 0.0607756 0.0137624 0.0595701 0.0166756 0.0584651 0.0193879 0.0572597 0.0219998 0.0559537 0.0247121 0.0546478 0.027123 0.053141 0.0297348 0.0517346 0.0321458 0.0499264 0.0343558 0.0484196 0.0365658 0.0465109 0.0387758 0.0447027 0.0408854 0.0426936 0.0426936 0.0408854 0.0447027 0.0386754 0.0465109 0.0365658 0.0483191 0.0344563 0.0500269 0.0320453 0.0516342 0.0297348 0.053141 0.0272235 0.0546478 0.0246116 0.0559537 0.0221002 0.0572597 0.0193879 0.0584651 0.0165752 0.0596706 0.0138629 0.0606752 0.0108492 0.0617802 0.00783553 0.0625838 0.00472141 0.0633875 0.00150683zm0 -0.0544469l0.0605747 -0.00150683 0.0597711 -0.0045205 0.0589674 -0.00743371 0.0580633 -0.0104474 0.0569583 -0.0131597 0.0558533 -0.015872 0.0547483 -0.0185843 0.0535428 -0.0210957 0.0521364 -0.0235066 0.0508305 -0.0259175 0.0492232 -0.0284289 0.0478168 -0.0306389 0.0462096 -0.0329494 0.0446023 -0.0349585 0.0426936 -0.0370681 0.0408854 -0.0390772 0.0390772 -0.040785 0.0369676 -0.0427941 0.035059 -0.0444014 0.0327485 -0.0462096 0.0307394 -0.0478168 0.0283285 -0.0493237 0.026018 -0.0508305 0.0237075 -0.0522369 0.0209952 -0.0534424 0.0185843 -0.0547483 0.015872 -0.0558533 0.0131597 -0.0569583 0.0103469 -0.0580633 0.00753417 -0.0589674 0.0045205 -0.0597711 0.00160729 -0.0606752 -0.00160729 -0.0606752 -0.0045205 -0.0597711 -0.00753417 -0.0589674 -0.0103469 -0.0579629 -0.0131597 -0.0570588 -0.015872 -0.0558533 -0.0185843 -0.0547483 -0.0209952 -0.0534424 -0.0237075 -0.0521364 -0.026018 -0.0508305 -0.0283285 -0.0493237 -0.0307394 -0.0478168 -0.032849 -0.0462096 -0.0349585 -0.0445018 -0.0368672 -0.0426936 -0.0391777 -0.0409859 -0.0408854 -0.0390772 -0.0426936 -0.0369676 -0.0445018 -0.0349585 -0.04631 -0.032849 -0.0478168 -0.0306389 -0.0492232 -0.0284289 -0.0508305 -0.026018 -0.0521364 -0.0236071 -0.0535428 -0.0210957 -0.0547483 -0.0185843 -0.0558533 -0.0157715 -0.0569583 -0.0131597 -0.0580633 -0.0104474 -0.0589674 -0.00743371 -0.0597711 -0.00462096 -0.0605747 -0.00150683 -0.0606752 0.00150683 -0.0598715 0.00462096 -0.0589674 0.00743371 -0.0579629 0.0104474 -0.0570588 0.0131597 -0.0558533 0.0157715 -0.0546478 0.0185843 -0.0535428 0.0210957 -0.0522369 0.0236071 -0.0508305 0.026018 -0.0492232 0.0284289 -0.0478168 0.0306389 -0.0462096 0.032849 -0.0445018 0.0349585 -0.0426936 0.0370681 -0.0408854 0.0389768 -0.0390772 0.0409859 -0.0369676 0.0426936 -0.035059 0.0445018 -0.032849 0.0462096 -0.0307394 0.0478168 -0.0283285 0.0493237 -0.026018 0.0507301 -0.0235066 0.0521364 -0.0210957 0.0535428 -0.0185843 0.0547483 -0.015872 0.0559537 -0.0131597 0.0569583 -0.0103469 0.0579629 -0.00753417 0.0589674 -0.0045205 0.0597711 -0.00150683 0.0606752 0.00150683 0.0606752 0.0045205 0.0598715 0.00753417 0.058867 0.0103469 0.0580633 0.0131597 0.0569583 0.015872 0.0558533 0.0185843 0.0547483 0.0210957 0.0534424 0.0235066 0.0522369 0.026018 0.0507301 0.0284289 0.0494241 0.0306389 0.0478168 0.032849 0.0462096 0.0349585 0.0444014 0.0369676 0.0427941 0.0391777 0.040785 0.0408854 0.0391777 0.0426936 0.0369676 0.0445018 0.0349585 0.0462096 0.0329494 0.0478168 0.0306389 0.0493237 0.0284289 0.0507301 0.0259175 0.0522369 0.0235066 0.0535428 0.0210957 0.0546478 0.0185843 0.0558533 0.015872 0.0570588 0.0131597 0.0579629 0.0104474 0.0589674 0.00743371 0.0598715 0.0045205 0.0606752 0.00150683z"/>
  <path class="fil0" d="M164.077 1.91318l0 -1.36117 0.566268 0c0.118638,0 0.205733,0.0126574 0.262289,0.0379722 0.0561547,0.0254153 0.102264,0.0678075 0.138528,0.126875 0.0362645,0.0591683 0.0541455,0.127679 0.0541455,0.205633 0,0.102666 -0.030438,0.186044 -0.0918164,0.249733 -0.0612779,0.0636888 -0.150583,0.104273 -0.267413,0.121652 0.0476159,0.0248125 0.0838804,0.049826 0.108492,0.0751408 0.0504287,0.052036 0.0947296,0.109999 0.132802,0.173688l0.223112 0.37048 -0.212664 0 -0.169669 -0.283285c-0.0660998,-0.110602 -0.115725,-0.185441 -0.149478,-0.223715 -0.0337531,-0.038374 -0.0664011,-0.0640906 -0.0975423,-0.0773508 -0.0316435,-0.0133606 -0.0758439,-0.0199907 -0.132501,-0.0199907l-0.195487 0 0 0.604341 -0.169067 0zm0.169067 -0.760248l0.363448 0c0.079159,0 0.139332,-0.00863918 0.18072,-0.0254153 0.0408854,-0.0164747 0.0736339,-0.0427941 0.0975423,-0.0788576 0.0243102,-0.0358626 0.0363649,-0.0777526 0.0363649,-0.125268 0,-0.0687116 -0.0233057,-0.122656 -0.0693143,-0.161934 -0.0457073,-0.0392781 -0.114318,-0.058867 -0.20503,-0.058867l-0.403731 0 0 0.450342z"/>
 </g>
</svg>
