<?xml version="1.0" encoding="UTF-8"?>
<!DOCTYPE svg PUBLIC "-//W3C//DTD SVG 1.1//EN" "http://www.w3.org/Graphics/SVG/1.1/DTD/svg11.dtd">
<!-- Creator: CorelDRAW -->
<svg xmlns="http://www.w3.org/2000/svg" xml:space="preserve" width="96mm" height="34mm" style="shape-rendering:geometricPrecision; text-rendering:geometricPrecision; image-rendering:optimizeQuality; fill-rule:evenodd; clip-rule:evenodd"
viewBox="0 0 96 34"
 xmlns:xlink="http://www.w3.org/1999/xlink">
 <defs>
  <style type="text/css">
   <![CDATA[
    .fil0 {fill:#5B5B5B}
    .fil1 {fill:#B0CB1F}
    .fil3 {fill:#5B5B5B;fill-rule:nonzero}
    .fil2 {fill:url(#id0)}
   ]]>
  </style>
  <linearGradient id="id0" gradientUnits="userSpaceOnUse" x1="0.5774" y1="26.7346" x2="30.8094" y2="-0.877">
   <stop offset="0" style="stop-color:#B0CB1F"/>
   <stop offset="1" style="stop-color:#E4DF16"/>
  </linearGradient>
 </defs>
 <g id="Layer_x0020_1">
  <metadata id="CorelCorpID_0Corel-Layer"/>
  <g id="_250830368">
   <path id="_250830608" class="fil0" d="M15.8266 6.2747c2.2476,0 4.3577,0.589 6.1854,1.6198 -3.8748,5.1183 -9.7495,7.0148 -15.4792,10.0008 -0.9496,0.4948 -2.1313,1.2394 -3.2664,2.1482 -0.0346,-0.3807 -0.0535,-0.7656 -0.0535,-1.1552 0,-6.9651 5.6485,-12.6136 12.6137,-12.6136zm12.4916 10.8604c0.0798,0.5733 0.122,1.1581 0.122,1.7532 0,6.9652 -5.6485,12.6137 -12.6136,12.6137 -3.9889,0 -7.5456,-1.8531 -9.8568,-4.7447 1.649,-1.2115 3.8311,-1.9954 5.595,-2.5788 3.5748,-1.182 7.1938,-2.0731 10.6776,-3.5452 1.3687,-0.5783 2.7049,-1.2393 3.9696,-2.0208 0.7434,-0.4593 1.4455,-0.9508 2.1062,-1.4774z"/>
   <path id="_250830488" class="fil1" d="M14.0911 31.8805c-3.7034,1.5279 -8.3222,0.5952 -9.7889,-3.5762 -0.9004,1.094 -0.5543,3.666 0.6008,4.3323 2.6906,1.5525 7.0038,1.1152 9.1881,-0.7561z"/>
   <path id="_250830416" class="fil2" d="M3.8288 32.1514c-0.7487,-1.1789 -1.3207,-3.038 -0.2107,-4.5355 5.0831,-6.8569 23.3031,-4.5015 29.0506,-17.7892 0.361,-2.9622 -0.1134,-6.8536 -0.7392,-9.534 -2.9971,2.5346 -5.7062,4.5443 -7.3407,5.4329 -3.9379,7.6625 -11.6573,10.0012 -17.5785,13.0867 -3.0452,1.5868 -8.6125,5.8569 -6.0246,9.4222l2.8431 3.9169z"/>
  </g>
  <g id="_250826216">
   <path id="_250830272" class="fil3" d="M38.1459 16.7803c-0.4463,0 -0.8604,0.0756 -1.2379,0.222 -0.3776,0.1464 -0.7002,0.3614 -0.9703,0.6429 -0.2722,0.2815 -0.4828,0.6292 -0.6338,1.0434 -0.1532,0.4118 -0.2288,0.8855 -0.2288,1.4163 0,0.5287 0.0687,0.9931 0.2083,1.3913 0.1396,0.4004 0.3363,0.7344 0.5971,1.0022 0.2587,0.2676 0.5744,0.4713 0.9474,0.6063 0.3729,0.1373 0.7963,0.206 1.2699,0.206 0.3409,0 0.6864,-0.0275 1.041,-0.0801 0.3525,-0.0549 0.682,-0.1328 0.9908,-0.2357l0 1.414c-0.3134,0.0892 -0.6497,0.1602 -1.0113,0.2128 -0.3616,0.0504 -0.7367,0.0755 -1.1258,0.0755 -0.7596,0 -1.4277,-0.1075 -2.0043,-0.3248 -0.5767,-0.2175 -1.0595,-0.5217 -1.4462,-0.9176 -0.3867,-0.3959 -0.6773,-0.8695 -0.8718,-1.4209 -0.1945,-0.5538 -0.2906,-1.1624 -0.2906,-1.8282 0,-0.682 0.103,-1.318 0.3113,-1.9038 0.2082,-0.5857 0.5079,-1.0914 0.8991,-1.5216 0.3913,-0.4279 0.881,-0.7665 1.4668,-1.0113 0.588,-0.2471 1.2538,-0.3707 1.9953,-0.3753 0.3798,0 0.739,0.0252 1.0799,0.0778 0.3386,0.0504 0.6453,0.1235 0.9175,0.2173l0 1.3935c-0.3569,-0.1121 -0.691,-0.1899 -0.9998,-0.2334 -0.3067,-0.0458 -0.6087,-0.0686 -0.9038,-0.0686z"/>
   <polygon id="_250830176" class="fil3" points="42.2154,19.375 40.1446,19.375 40.1446,18.0342 45.8741,18.0342 45.8741,19.375 43.8033,19.375 43.8033,24.5302 42.2154,24.5302 "/>
   <path id="_250830080" class="fil3" d="M53.4695 19.2241l0 3.5556c0.0665,0.0779 0.1489,0.1534 0.2426,0.2289 0.0938,0.0755 0.1991,0.1441 0.3135,0.2083 0.1166,0.0617 0.2448,0.1143 0.3867,0.1533 0.1396,0.0412 0.286,0.0617 0.4393,0.0617 0.2448,0 0.4645,-0.0526 0.6567,-0.1578 0.1922,-0.1053 0.3523,-0.2541 0.4782,-0.4463 0.1282,-0.1922 0.2243,-0.4209 0.2929,-0.6864 0.0664,-0.2678 0.1007,-0.5629 0.1007,-0.8901 0,-0.3478 -0.0343,-0.6544 -0.1053,-0.9176 -0.0686,-0.263 -0.1669,-0.4827 -0.2951,-0.6566 -0.6161,-0.8513 -1.646,-0.453 -2.5102,-0.453zm1.6635 5.4731c-0.35,0 -0.6658,-0.064 -0.9496,-0.1898 -0.2837,-0.1282 -0.5194,-0.286 -0.7069,-0.4737l-0.0275 0 0.0205 2.3952 -1.5879 0 0 -8.3947c1.6837,0 3.9195,-0.7425 5.2695,0.643 0.2632,0.2745 0.4737,0.6178 0.6317,1.0342 0.1601,0.4142 0.2379,0.9084 0.2379,1.4804 0,0.6041 -0.0847,1.1258 -0.254,1.5651 -0.1693,0.4393 -0.3936,0.8055 -0.6704,1.0938 -0.2769,0.2883 -0.5835,0.501 -0.9221,0.6383 -0.3364,0.1396 -0.6842,0.2082 -1.0412,0.2082z"/>
   <path id="_250829984" class="fil3" d="M69.0785 21.0568c-0.1488,0 -0.2929,-0.0023 -0.4371,-0.0069 -0.1418,-0.0023 -0.2768,-0.0114 -0.4003,-0.0251l0 3.5054 -1.643 0 0 -8.9695 2.588 0c0.4324,0 0.8123,0.0183 1.1348,0.0573 0.325,0.0389 0.6133,0.0938 0.8695,0.1715 0.611,0.1876 1.0823,0.4874 1.4141,0.897 0.3295,0.4119 0.4965,0.9336 0.4965,1.5697 0,0.4324 -0.0915,0.8237 -0.2699,1.1691 -0.1785,0.3456 -0.4393,0.6408 -0.7826,0.881 -0.3455,0.2426 -0.7643,0.4279 -1.2608,0.556 -0.4964,0.1304 -1.0662,0.1945 -1.7092,0.1945zm-0.8374 -1.414c0.0938,0.0137 0.2127,0.0251 0.3569,0.0296 0.1464,0.007 0.2974,0.0116 0.4531,0.0116 0.4416,0 0.8123,-0.0367 1.112,-0.1077 0.2997,-0.0708 0.5422,-0.1715 0.7253,-0.2974 0.1831,-0.128 0.3135,-0.2814 0.3958,-0.4644 0.0801,-0.1808 0.1191,-0.3775 0.1191,-0.5927 0,-0.2631 -0.0595,-0.4919 -0.1808,-0.6841 -0.119,-0.1922 -0.3295,-0.3409 -0.6292,-0.4486 -0.1579,-0.0526 -0.3501,-0.0914 -0.5812,-0.1166 -0.2289,-0.0252 -0.5126,-0.0366 -0.8467,-0.0366l-0.9243 0 0 2.7069z"/>
   <path id="_250829888" class="fil3" d="M77.5142 21.2856c0,-0.3432 -0.0388,-0.6475 -0.1212,-0.9107 -0.0802,-0.2653 -0.1922,-0.485 -0.3341,-0.6635 -0.1442,-0.1808 -0.3158,-0.3134 -0.5171,-0.4027 -0.2014,-0.0892 -0.4188,-0.135 -0.6568,-0.135 -0.2311,0 -0.4484,0.0458 -0.6475,0.135 -0.1967,0.0893 -0.3684,0.2219 -0.5125,0.4027 -0.1419,0.1785 -0.254,0.3982 -0.3341,0.6635 -0.0801,0.2632 -0.1212,0.5675 -0.1212,0.9107 0,0.3432 0.0411,0.6476 0.1212,0.9107 0.0801,0.2655 0.1922,0.4851 0.3386,0.6613 0.1442,0.1762 0.3181,0.3112 0.5149,0.4026 0.199,0.0916 0.4188,0.1373 0.6544,0.1373 0.238,0 0.453,-0.0457 0.6498,-0.1373 0.1968,-0.0914 0.3661,-0.2264 0.5103,-0.4026 0.1419,-0.1762 0.2539,-0.3958 0.3341,-0.6613 0.0824,-0.2631 0.1212,-0.5675 0.1212,-0.9107zm1.6429 0c0,0.5103 -0.0755,0.9748 -0.2288,1.3935 -0.151,0.421 -0.3684,0.7803 -0.6522,1.08 -0.2837,0.2997 -0.6269,0.5309 -1.0296,0.6933 -0.4028,0.1648 -0.8512,0.2448 -1.3477,0.2448 -0.5103,0 -0.9657,-0.08 -1.3706,-0.2448 -0.4051,-0.1624 -0.7483,-0.3936 -1.0297,-0.6933 -0.2813,-0.2997 -0.4965,-0.659 -0.6452,-1.08 -0.151,-0.4187 -0.2266,-0.8832 -0.2266,-1.3935 0,-0.5102 0.0779,-0.9747 0.2289,-1.3934 0.151,-0.4211 0.3707,-0.7803 0.6544,-1.0801 0.2838,-0.2997 0.627,-0.5308 1.0273,-0.6932 0.4028,-0.1647 0.8512,-0.2449 1.3477,-0.2449 0.5103,0 0.968,0.0802 1.3707,0.2449 0.4049,0.1624 0.7482,0.3935 1.0296,0.6932 0.2814,0.2998 0.4966,0.659 0.6476,1.0801 0.1487,0.4187 0.2242,0.8832 0.2242,1.3934z"/>
   <path id="_250829792" class="fil3" d="M84.3253 24.3883c-0.2013,0.087 -0.4484,0.1579 -0.7367,0.2198 -0.2906,0.0594 -0.5973,0.0891 -0.92,0.0891 -0.4689,0 -0.9061,-0.0663 -1.3133,-0.2013 -0.4073,-0.1327 -0.7619,-0.3364 -1.0662,-0.6086 -0.3044,-0.2723 -0.5424,-0.6178 -0.7162,-1.0366 -0.1762,-0.4187 -0.2632,-0.9061 -0.2632,-1.4644 0,-0.6247 0.1007,-1.1624 0.3021,-1.6085 0.2013,-0.4463 0.4621,-0.81 0.7825,-1.0892 0.3181,-0.2792 0.6773,-0.4851 1.0777,-0.6178 0.4005,-0.1304 0.794,-0.1968 1.1829,-0.1968 0.2906,0 0.5698,0.0251 0.8398,0.0778 0.2677,0.0504 0.5102,0.1213 0.7299,0.2105l0 1.2928c-0.1967,-0.0847 -0.405,-0.1532 -0.6269,-0.2036 -0.222,-0.0526 -0.46,-0.0778 -0.7139,-0.0778 -0.254,0 -0.4989,0.0389 -0.7299,0.1166 -0.2334,0.0801 -0.4394,0.2038 -0.6178,0.373 -0.1785,0.1694 -0.3204,0.3935 -0.4256,0.6727 -0.1052,0.2815 -0.1579,0.6178 -0.1579,1.0091 0,0.286 0.0411,0.556 0.1213,0.8077 0.0801,0.2541 0.1967,0.4691 0.3523,0.6476 0.1534,0.1785 0.3501,0.3227 0.5904,0.4325 0.238,0.1097 0.5217,0.1646 0.8465,0.1646 0.2907,0 0.5538,-0.0296 0.7918,-0.0868 0.2357,-0.0596 0.4599,-0.1305 0.6704,-0.2152l0 1.2928z"/>
   <path id="_250829696" class="fil3" d="M47.5166 24.7299c-0.3104,0 -0.5978,-0.0482 -0.8692,-0.1448 -0.2689,-0.0966 -0.4989,-0.2344 -0.692,-0.4161 -0.1932,-0.1817 -0.3449,-0.4025 -0.4554,-0.6623 -0.1103,-0.2575 -0.1655,-0.5449 -0.1655,-0.8645 0,-0.3495 0.0644,-0.6646 0.1932,-0.9428 0.1265,-0.2782 0.3058,-0.515 0.5334,-0.7082 0.23,-0.1931 0.5037,-0.3402 0.8232,-0.4414 0.3196,-0.1013 0.6714,-0.1519 1.0577,-0.1519 0.2828,0 0.5426,0.0185 0.7818,0.0553 0.2368,0.0367 0.4461,0.0781 0.6254,0.1287 0,-0.8089 -0.1798,-1.2002 -1.079,-1.2003l-1.4179 -0.0001 0 -1.3474 1.7941 0c1.3752,0 2.2985,0.7372 2.2987,2.1293l0.0002 4.3988c-1.3519,0 -2.2646,0.1677 -3.4287,0.1677zm1.8326 -2.95c-0.1517,-0.0368 -0.3264,-0.0689 -0.5242,-0.0966 -0.1978,-0.0299 -0.3978,-0.0437 -0.6002,-0.0437 -0.3908,0 -0.699,0.0759 -0.9266,0.2323 -0.2276,0.154 -0.3403,0.3909 -0.3403,0.7105 0,0.1472 0.0269,0.2754 0.0781,0.3863 0.3403,0.7384 1.7088,0.439 2.3132,0.439l0 -1.6278z"/>
   <polygon id="_250826600" class="fil3" points="60.1428,19.375 58.0721,19.375 58.0721,18.0342 63.8016,18.0342 63.8016,19.375 61.7307,19.375 61.7307,24.5302 60.1428,24.5302 "/>
   <path id="_250826312" class="fil3" d="M91.983 24.7299c-0.3104,0 -0.5978,-0.0482 -0.8692,-0.1448 -0.2689,-0.0966 -0.4989,-0.2344 -0.6921,-0.4161 -0.1931,-0.1817 -0.3448,-0.4025 -0.4553,-0.6623 -0.1103,-0.2575 -0.1655,-0.5449 -0.1655,-0.8645 0,-0.3495 0.0643,-0.6646 0.1931,-0.9428 0.1266,-0.2782 0.3058,-0.515 0.5335,-0.7082 0.23,-0.1931 0.5036,-0.3402 0.8232,-0.4414 0.3196,-0.1013 0.6714,-0.1519 1.0577,-0.1519 0.2828,0 0.5426,0.0185 0.7817,0.0553 0.2369,0.0367 0.4462,0.0781 0.6255,0.1287 0,-0.8089 -0.1798,-1.2002 -1.079,-1.2003l-1.4179 -0.0001 0 -1.3474 1.794 0c1.3752,0 2.2986,0.7372 2.2987,2.1293l0.0003 4.3988c-1.3519,0 -2.2647,0.1677 -3.4287,0.1677zm1.8326 -2.95c-0.1518,-0.0368 -0.3265,-0.0689 -0.5242,-0.0966 -0.1978,-0.0299 -0.3979,-0.0437 -0.6002,-0.0437 -0.3909,0 -0.6991,0.0759 -0.9266,0.2323 -0.2277,0.154 -0.3403,0.3909 -0.3403,0.7105 0,0.1472 0.0269,0.2754 0.0781,0.3863 0.3403,0.7384 1.7087,0.439 2.3132,0.439l0 -1.6278z"/>
   <polygon id="_250826336" class="fil3" points="86.8006,19.375 84.7299,19.375 84.7299,18.0342 90.4594,18.0342 90.4594,19.375 88.3885,19.375 88.3885,24.5302 86.8006,24.5302 "/>
  </g>
 </g>
</svg>
